<svg xmlns="http://www.w3.org/2000/svg" width="19.727" height="19.727" viewBox="0 0 19.727 19.727">
  <g id="Group_148053" data-name="Group 148053" transform="translate(0 19.727) rotate(-90)">
    <path id="Path_22851" data-name="Path 22851" d="M0,0H19.727V19.727H0Z" fill="none"/>
    <path id="Path_21356" data-name="Path 21356" d="M.213.219A.7.7,0,0,0,.182,1.2L4.527,5.813a.84.84,0,0,0,1.223,0L9.9,1.4c.4-.442.507-.852.137-1.215C9.632-.125,9.257,0,8.912.4L5.372,4.161a.321.321,0,0,1-.466,0L1.184.212A.654.654,0,0,0,.213.219Z" transform="translate(12.902 4.227) rotate(90)" fill="#0a68cc"/>
  </g>
</svg>
